# xmcd
#
# Track frame offsets: 
#        150
#        37493
#        56382
#        75916
#        94349
#        111801
#        128303
#        147123
#        163895
#        181944
#        198771
#        214462
#        234194
#        250178
#        265232
#        285299
#
# Disc length: 4097 seconds
#
# Revision: 0
# Processed by: cddbd v1.5.2PL0 Copyright (c) Steve Scherf et al.
# Submitted via: ExactAudioCopy v0.99pb4
#
DISCID=d70fff10
DTITLE=Nana Mouskouri - Les 50 Plus Belles Chansons - Disque 1
DYEAR=2007
DGENRE=Ballad
TTITLE0=Le Ciel Est Noir
TTITLE1=Un Vieil Enfant
TTITLE2=Si La Vie Chantait
TTITLE3=Adieu Mes Amis
TTITLE4=Pauvre Rutebeuf
TTITLE5=Dix Mille Ans Encore
TTITLE6=Où Es Tu Passé
TTITLE7=Besoin De Moi
TTITLE8=On Cueille La Rose
TTITLE9=Barbara Furtuna
TTITLE10=Une Ile
TTITLE11=Tu M'Oublies
TTITLE12=La Javanaise
TTITLE13=Il Est Passé
TTITLE14=L'Amour En Héritage
TTITLE15=Mon Dieu
EXTD=
EXTT0=
EXTT1=
EXTT2=
EXTT3=
EXTT4=
EXTT5=
EXTT6=
EXTT7=
EXTT8=
EXTT9=
EXTT10=
EXTT11=
EXTT12=
EXTT13=
EXTT14=
EXTT15=
PLAYORDER=
